<mxfile host="Electron" agent="Mozilla/5.0 (Windows NT 10.0; Win64; x64) AppleWebKit/537.36 (KHTML, like Gecko) draw.io/26.0.9 Chrome/128.0.6613.186 Electron/32.2.5 Safari/537.36" version="26.0.9">
  <diagram name="Page-1" id="ImJihVVvyPO_nD5mvGIb">
    <mxGraphModel dx="1234" dy="726" grid="1" gridSize="10" guides="1" tooltips="1" connect="1" arrows="1" fold="1" page="1" pageScale="1" pageWidth="827" pageHeight="1169" math="0" shadow="0">
      <root>
        <mxCell id="0" />
        <mxCell id="1" parent="0" />
        <mxCell id="0w1tvPRnP9hyRKxATpWo-4" value="" style="edgeStyle=orthogonalEdgeStyle;rounded=0;orthogonalLoop=1;jettySize=auto;html=1;" edge="1" parent="1" source="0w1tvPRnP9hyRKxATpWo-5">
          <mxGeometry relative="1" as="geometry">
            <mxPoint x="395" y="350" as="targetPoint" />
          </mxGeometry>
        </mxCell>
        <mxCell id="0w1tvPRnP9hyRKxATpWo-5" value="Inicio" style="ellipse;whiteSpace=wrap;html=1;" vertex="1" parent="1">
          <mxGeometry x="335" y="240" width="120" height="80" as="geometry" />
        </mxCell>
        <mxCell id="0w1tvPRnP9hyRKxATpWo-7" value="" style="edgeStyle=orthogonalEdgeStyle;rounded=0;orthogonalLoop=1;jettySize=auto;html=1;" edge="1" parent="1">
          <mxGeometry relative="1" as="geometry">
            <mxPoint x="395" y="690" as="sourcePoint" />
            <mxPoint x="395" y="760" as="targetPoint" />
          </mxGeometry>
        </mxCell>
        <mxCell id="0w1tvPRnP9hyRKxATpWo-8" value="Buscar el autor" style="shape=cylinder3;whiteSpace=wrap;html=1;boundedLbl=1;backgroundOutline=1;size=15;" vertex="1" parent="1">
          <mxGeometry x="365" y="350" width="60" height="80" as="geometry" />
        </mxCell>
        <mxCell id="0w1tvPRnP9hyRKxATpWo-9" value="" style="edgeStyle=orthogonalEdgeStyle;rounded=0;orthogonalLoop=1;jettySize=auto;html=1;" edge="1" parent="1" source="0w1tvPRnP9hyRKxATpWo-10" target="0w1tvPRnP9hyRKxATpWo-11">
          <mxGeometry relative="1" as="geometry" />
        </mxCell>
        <mxCell id="0w1tvPRnP9hyRKxATpWo-10" value="Verificar si el autor tiene titulos relacionados&amp;nbsp;" style="shape=cylinder3;whiteSpace=wrap;html=1;boundedLbl=1;backgroundOutline=1;size=15;" vertex="1" parent="1">
          <mxGeometry x="352.5" y="480" width="85" height="110" as="geometry" />
        </mxCell>
        <mxCell id="0w1tvPRnP9hyRKxATpWo-24" value="no" style="edgeStyle=orthogonalEdgeStyle;rounded=0;orthogonalLoop=1;jettySize=auto;html=1;exitX=1;exitY=0.5;exitDx=0;exitDy=0;entryX=0;entryY=0.5;entryDx=0;entryDy=0;" edge="1" parent="1" source="0w1tvPRnP9hyRKxATpWo-11" target="0w1tvPRnP9hyRKxATpWo-16">
          <mxGeometry relative="1" as="geometry" />
        </mxCell>
        <mxCell id="0w1tvPRnP9hyRKxATpWo-11" value="Â¿El autor tiene registros relacionados?" style="rhombus;whiteSpace=wrap;html=1;" vertex="1" parent="1">
          <mxGeometry x="332.5" y="660" width="125" height="115" as="geometry" />
        </mxCell>
        <mxCell id="0w1tvPRnP9hyRKxATpWo-12" value="" style="edgeStyle=orthogonalEdgeStyle;rounded=0;orthogonalLoop=1;jettySize=auto;html=1;" edge="1" parent="1" source="0w1tvPRnP9hyRKxATpWo-13" target="0w1tvPRnP9hyRKxATpWo-14">
          <mxGeometry relative="1" as="geometry" />
        </mxCell>
        <mxCell id="0w1tvPRnP9hyRKxATpWo-13" value="Mostar mensaje&amp;nbsp;&lt;div&gt;de error&amp;nbsp;&lt;/div&gt;" style="shape=parallelogram;perimeter=parallelogramPerimeter;whiteSpace=wrap;html=1;fixedSize=1;" vertex="1" parent="1">
          <mxGeometry x="200" y="850" width="120" height="60" as="geometry" />
        </mxCell>
        <mxCell id="0w1tvPRnP9hyRKxATpWo-14" value="Fin" style="ellipse;whiteSpace=wrap;html=1;" vertex="1" parent="1">
          <mxGeometry x="345" y="840" width="120" height="80" as="geometry" />
        </mxCell>
        <mxCell id="0w1tvPRnP9hyRKxATpWo-15" value="" style="edgeStyle=orthogonalEdgeStyle;rounded=0;orthogonalLoop=1;jettySize=auto;html=1;" edge="1" parent="1" source="0w1tvPRnP9hyRKxATpWo-16" target="0w1tvPRnP9hyRKxATpWo-22">
          <mxGeometry relative="1" as="geometry" />
        </mxCell>
        <mxCell id="0w1tvPRnP9hyRKxATpWo-16" value="Eliminar o marcar como inactiva" style="whiteSpace=wrap;html=1;" vertex="1" parent="1">
          <mxGeometry x="510" y="687.5" width="120" height="60" as="geometry" />
        </mxCell>
        <mxCell id="0w1tvPRnP9hyRKxATpWo-21" value="" style="edgeStyle=orthogonalEdgeStyle;rounded=0;orthogonalLoop=1;jettySize=auto;html=1;" edge="1" parent="1" source="0w1tvPRnP9hyRKxATpWo-22" target="0w1tvPRnP9hyRKxATpWo-14">
          <mxGeometry relative="1" as="geometry" />
        </mxCell>
        <mxCell id="0w1tvPRnP9hyRKxATpWo-22" value="Confirmar eliminacion" style="rounded=0;whiteSpace=wrap;html=1;" vertex="1" parent="1">
          <mxGeometry x="510" y="850" width="120" height="60" as="geometry" />
        </mxCell>
        <mxCell id="0w1tvPRnP9hyRKxATpWo-25" value="si" style="edgeStyle=orthogonalEdgeStyle;rounded=0;orthogonalLoop=1;jettySize=auto;html=1;exitX=0;exitY=0.5;exitDx=0;exitDy=0;entryX=0.558;entryY=0.037;entryDx=0;entryDy=0;entryPerimeter=0;" edge="1" parent="1" source="0w1tvPRnP9hyRKxATpWo-11" target="0w1tvPRnP9hyRKxATpWo-13">
          <mxGeometry relative="1" as="geometry" />
        </mxCell>
        <mxCell id="0w1tvPRnP9hyRKxATpWo-26" style="edgeStyle=orthogonalEdgeStyle;rounded=0;orthogonalLoop=1;jettySize=auto;html=1;exitX=0.5;exitY=1;exitDx=0;exitDy=0;exitPerimeter=0;entryX=0.5;entryY=0;entryDx=0;entryDy=0;entryPerimeter=0;" edge="1" parent="1" source="0w1tvPRnP9hyRKxATpWo-8" target="0w1tvPRnP9hyRKxATpWo-10">
          <mxGeometry relative="1" as="geometry" />
        </mxCell>
        <mxCell id="0w1tvPRnP9hyRKxATpWo-29" style="edgeStyle=orthogonalEdgeStyle;rounded=0;orthogonalLoop=1;jettySize=auto;html=1;exitX=0.5;exitY=1;exitDx=0;exitDy=0;exitPerimeter=0;entryX=0.5;entryY=0;entryDx=0;entryDy=0;" edge="1" parent="1" source="0w1tvPRnP9hyRKxATpWo-28" target="0w1tvPRnP9hyRKxATpWo-5">
          <mxGeometry relative="1" as="geometry" />
        </mxCell>
        <mxCell id="0w1tvPRnP9hyRKxATpWo-28" value="Menu Principal" style="verticalLabelPosition=bottom;verticalAlign=top;html=1;shape=mxgraph.flowchart.on-page_reference;" vertex="1" parent="1">
          <mxGeometry x="365" y="130" width="60" height="60" as="geometry" />
        </mxCell>
      </root>
    </mxGraphModel>
  </diagram>
</mxfile>
